<svg clip-rule="evenodd" fill-rule="evenodd" height="2048" image-rendering="optimizeQuality" shape-rendering="geometricPrecision" text-rendering="geometricPrecision" viewBox="0 0 2048 2048" width="2048" xmlns="http://www.w3.org/2000/svg"><g id="Layer_x0020_1" fill="#f7a80d" fill-rule="nonzero"><path d="m957.798 1775-663.381-237.97-10.624-3.82-.001-11.18v-972.339l.001-22.322 21.124 7.197 663.381 226.041 10.876 3.706v11.419 984.268 22.67z"/><path d="m1753.58 1537.03-663.37 237.97-21.38 7.67v-22.67-984.268-11.419l10.88-3.706 663.37-226.041 21.13-7.197v22.322 972.339 11.18z"/><path d="m363.661 461.604 671.389-188.978 9.18.186 622.53 200.718.25 30.313-622.53 211.349h-10.12l-671.387-223.089z"/></g><path d="m0 0h2048v2048h-2048z" fill="none"/></svg>