<svg height="512" viewBox="0 0 24 24" width="512" xmlns="http://www.w3.org/2000/svg"><g><ellipse cx="12" cy="3" fill="#6dedd4" rx="10" ry="3"/><path d="m22 3v6c0 1.66-4.48 3-10 3s-10-1.34-10-3v-6c0 1.66 4.48 3 10 3s10-1.34 10-3z" fill="#61c5fa"/><circle cx="5" cy="8" fill="#fff" r="1"/><path d="m22 9v6c0 1.66-4.48 3-10 3s-10-1.34-10-3v-6c0 1.66 4.48 3 10 3s10-1.34 10-3z" fill="#468ff1"/><path d="m22 15v6c0 1.66-4.48 3-10 3s-10-1.34-10-3v-6c0 1.66 4.48 3 10 3s10-1.34 10-3z" fill="#3870cf"/><g fill="#fff"><circle cx="5" cy="14" r="1"/><circle cx="5" cy="20" r="1"/></g></g></svg>