<svg id="Capa_1" enable-background="new 0 0 512 512" height="512" viewBox="0 0 512 512" width="512" xmlns="http://www.w3.org/2000/svg"><g><path d="m90.667 6.4h330.667c50.133 0 90.666 40.533 90.666 90.667v317.867c0 50.133-40.533 90.667-90.667 90.667h-330.666c-50.134-.001-90.667-40.534-90.667-90.668v-317.866c0-50.134 40.533-90.667 90.667-90.667z" fill="#001834"/><path d="m149.76 328.747v-155.307c0-1.067.427-1.707 1.493-1.707 2.56 0 4.907 0 8.533-.213 3.627 0 7.467-.213 11.52-.213s8.533-.213 13.227-.213 9.173-.213 13.653-.213c10.667-.213 21.12 1.28 31.147 4.693 7.68 2.56 14.507 6.827 20.267 12.373 4.907 4.907 8.747 10.667 11.093 17.067 2.347 6.187 3.413 12.8 3.413 19.627 0 13.013-2.987 23.68-8.96 32.213s-14.507 14.933-24.32 18.347c-10.88 3.627-22.4 5.547-34.133 5.12-3.627 0-6.187 0-7.467-.213-1.493 0-3.627-.213-6.613-.213v48.64c.213 1.067-.64 2.133-1.707 2.133-.213 0-.427 0-.64 0h-28.8c-1.279-.001-1.706-.641-1.706-1.921zm32.853-128v50.773c2.133.213 4.053.213 5.76.213h8.107c10.469 0 22.846-2.456 29.866-10.88 6.324-7.588 6.188-20.905 1.067-29.013-5.707-9.037-18.414-11.876-28.374-11.52-3.84 0-7.253 0-10.24.213-2.986 0-5.119.214-6.186.214z" fill="#00a9ff"/><path d="m358.187 242.347c-4.48-2.347-9.387-4.053-14.507-5.12-5.547-1.28-11.307-1.92-16.853-1.92-2.987 0-6.187.213-9.173 1.067-1.92.427-3.627 1.493-4.693 2.987-.853 1.28-1.28 2.773-1.28 4.053 0 1.493.64 2.773 1.493 3.84 1.493 1.707 3.2 2.987 5.12 4.053 3.413 1.92 7.04 3.627 10.667 4.907 8.107 2.773 16 6.4 23.253 11.093 4.907 3.2 8.96 7.467 11.947 12.587 2.347 4.907 3.627 10.24 3.627 15.573.213 7.04-1.92 14.08-5.76 20.053-4.267 5.973-10.027 10.667-16.853 13.44-8.747 3.413-17.92 5.12-27.307 4.907-6.827 0-13.867-.64-20.48-1.92-5.333-1.067-10.453-2.56-15.36-4.907-1.067-.64-1.707-1.707-1.707-2.987v-26.24c0-.427.213-1.067.64-1.28s1.067-.213 1.28.213c5.76 3.413 12.16 5.973 18.773 7.467 5.76 1.493 11.733 2.133 17.707 2.347 4.267.213 8.533-.427 12.587-2.133 2.56-1.067 4.053-3.627 4.053-6.4-.213-2.56-1.493-4.693-3.627-6.187-4.693-2.987-9.6-5.333-14.933-7.04-7.68-2.56-14.933-6.4-21.547-10.88-4.693-3.413-8.747-7.68-11.52-12.8-2.347-4.693-3.627-10.027-3.627-15.36 0-6.4 1.707-12.8 5.12-18.347 3.84-5.973 9.387-10.88 15.787-13.867 8.32-3.84 17.493-5.76 26.667-5.333 6.187 0 12.587.427 18.773 1.28 4.48.64 8.96 1.707 13.013 3.627.64.213 1.28.64 1.493 1.28s.213 1.28.213 1.92v24.533c0 .64-.213 1.067-.64 1.493-1.066.214-1.706.214-2.346.001z" fill="#00a9ff"/><g><path d="m256.427 442.027c-102.827 0-186.027-83.2-186.027-186.027s83.2-186.027 186.027-186.027c29.227 0 57.813 6.827 83.84 20.053 2.133 1.067 2.987 3.627 1.92 5.76s-3.627 2.987-5.76 1.92c-24.747-12.587-52.267-19.2-80-18.987-97.92-.212-177.494 79.361-177.494 177.281s79.36 177.493 177.493 177.493 177.494-79.36 177.494-177.493c0-27.947-6.613-55.467-19.2-80.427-1.067-2.133-.213-4.693 1.92-5.76s4.693-.213 5.76 1.92c13.227 26.027 20.267 55.04 20.267 84.267-.214 102.613-83.414 185.813-186.24 186.027z" fill="#006fb3"/></g></g></svg>