<svg id="line_copy" viewBox="0 0 64 64" xmlns="http://www.w3.org/2000/svg" xmlns:xlink="http://www.w3.org/1999/xlink" data-name="line copy"><linearGradient id="linear-gradient" gradientUnits="userSpaceOnUse" x1="3.985" x2="60.015" y1="32" y2="32"><stop offset="0" stop-color="#00c0ff"/><stop offset="1" stop-color="#5558ff"/></linearGradient><path d="m8.11265 46.50878c-14.86873-25.02236 13.34559-53.25326 38.38135-38.38178a.99866.99866 0 1 1 -1.04249 1.70368 25.70863 25.70863 0 0 0 -13.4292-3.75768c-19.91084-.26534-32.76962 22.53776-22.20622 39.393a.9988.9988 0 0 1 -1.70344 1.04278zm47.81883-28.94426a.99886.99886 0 0 0 -1.70368 1.04255c10.5632 16.85593-2.2952 39.65793-22.20622 39.39301a25.70845 25.70845 0 0 1 -13.42915-3.7577.99866.99866 0 1 0 -1.04249 1.70368 27.70762 27.70762 0 0 0 14.472 4.05148c21.44843.28513 35.29241-24.28261 23.90954-42.43302zm-4.84448-8.08833a3.49534 3.49534 0 0 1 .00012 6.99025 3.49534 3.49534 0 0 1 -.00012-6.99025zm.00006 4.993a1.49807 1.49807 0 0 0 .00006-2.99582 1.49807 1.49807 0 0 0 -.00002 2.99585zm-38.13021 40.12768a3.49535 3.49535 0 0 1 -.00012-6.99026 3.49535 3.49535 0 0 1 .00012 6.99026zm-.00006-4.993a1.49807 1.49807 0 0 0 -.00006 2.99582 1.49807 1.49807 0 0 0 .00006-2.99586zm-1.90561-17.5673a20.9708 20.9708 0 0 1 41.94159-.00019c-1.14751 27.81262-40.78987 27.82073-41.94159.00015zm39.89372.9986h-8.76658c-.16457 7.504-2.15136 13.85812-5.10281 17.2706a18.9829 18.9829 0 0 0 13.86939-17.27064zm-13.866-19.26689c2.94993 3.41406 4.93538 9.7672 5.09952 17.26968h8.76648a18.98284 18.98284 0 0 0 -13.86604-17.26972zm-13.21733 17.26964 16.32075.00006c-1.07332-23.84377-15.24413-23.85742-16.32075-.00006zm-10.76258 0h8.76652c.16414-7.50248 2.14959-13.85562 5.09952-17.26968a18.98286 18.98286 0 0 0 -13.86603 17.26968zm13.86939 19.26781c-2.95145-3.41248-4.93824-9.76659-5.10281-17.2706h-8.76657a18.9829 18.9829 0 0 0 13.86938 17.2706zm5.05357.69947c4.29034 0 7.926-8.13252 8.16031-17.97007h-16.32063c.23437 9.83755 3.86997 17.97007 8.16032 17.97007z" fill="url(#linear-gradient)"/></svg>