<svg width="960" height="600" viewBox="0 0 960 600" fill="none" xmlns="http://www.w3.org/2000/svg">
  <rect width="960" height="600" fill="#F8FAFC"/>
  <rect x="96" y="76" width="768" height="448" rx="22" fill="#0F172A"/>
  <rect x="132" y="116" width="172" height="368" rx="14" fill="#1E293B"/>
  <rect x="336" y="116" width="492" height="92" rx="14" fill="#E0F2FE"/>
  <rect x="336" y="236" width="224" height="248" rx="14" fill="#FFFFFF"/>
  <rect x="588" y="236" width="240" height="248" rx="14" fill="#FFFFFF"/>
  <rect x="368" y="276" width="160" height="18" rx="9" fill="#38BDF8"/>
  <rect x="368" y="324" width="118" height="18" rx="9" fill="#94A3B8"/>
  <rect x="620" y="276" width="176" height="18" rx="9" fill="#0EA5E9"/>
  <rect x="620" y="324" width="132" height="18" rx="9" fill="#94A3B8"/>
  <rect x="164" y="156" width="108" height="14" rx="7" fill="#38BDF8"/>
  <rect x="164" y="210" width="92" height="12" rx="6" fill="#CBD5E1"/>
  <rect x="164" y="252" width="116" height="12" rx="6" fill="#CBD5E1"/>
  <rect x="164" y="294" width="76" height="12" rx="6" fill="#CBD5E1"/>
</svg>
